<svg xmlns:xlink="http://www.w3.org/1999/xlink" width="20" height="20" viewBox="0 0 20 20" fill="none" xmlns="http://www.w3.org/2000/svg">
<path fill-rule="evenodd" clip-rule="evenodd" d="M2.5 6.20885V15.5H17.5V6.20888L11.2149 11.0151C10.4978 11.5635 9.50223 11.5635 8.78512 11.0151L2.5 6.20885ZM17.2654 4.5H2.73468L9.6963 9.82359C9.87557 9.96068 10.1245 9.96068 10.3037 9.82359L17.2654 4.5ZM1 4C1 3.44772 1.44772 3 2 3H18C18.5523 3 19 3.44772 19 4V16C19 16.5523 18.5523 17 18 17H2C1.44772 17 1 16.5523 1 16V4Z" fill="#0D0D0D"></path>
</svg>