<svg xmlns:xlink="http://www.w3.org/1999/xlink" width="20" height="20" viewBox="0 0 20 20" fill="none" xmlns="http://www.w3.org/2000/svg">
<path fill-rule="evenodd" clip-rule="evenodd" d="M16.1111 17.8573H3.88885C2.92455 17.8573 2.14282 17.0756 2.14282 16.1113V3.8891C2.14282 2.92479 2.92455 2.14307 3.88885 2.14307H16.1111C17.0754 2.14307 17.8571 2.92479 17.8571 3.8891V16.1113C17.8571 17.0756 17.0754 17.8573 16.1111 17.8573ZM13.3426 15.675H15.6745V10.8846C15.6745 8.85768 14.5256 7.87767 12.9207 7.87767C11.3151 7.87767 10.6394 9.12798 10.6394 9.12798V8.10882H8.39212V15.675H10.6394V11.7032C10.6394 10.639 11.1293 10.0057 12.0669 10.0057C12.9289 10.0057 13.3426 10.6143 13.3426 11.7032V15.675ZM4.32532 5.72193C4.32532 6.49294 4.94561 7.1181 5.71109 7.1181C6.47657 7.1181 7.0965 6.49294 7.0965 5.72193C7.0965 4.95091 6.47657 4.32575 5.71109 4.32575C4.94561 4.32575 4.32532 4.95091 4.32532 5.72193ZM6.89404 15.675H4.55068V8.10882H6.89404V15.675Z" fill="#0D0D0D"></path>
</svg>