<?xml version="1.0" encoding="UTF-8"?>
<svg id="Layer_1" xmlns="http://www.w3.org/2000/svg" version="1.1" viewBox="0 0 90 90">
  <!-- Generator: Adobe Illustrator 29.0.0, SVG Export Plug-In . SVG Version: 2.1.0 Build 186)  -->
  <defs>
    <style>
      .st0 {
        fill: #f0bd00;
      }

      .st1 {
        fill: #422f4c;
      }
    </style>
  </defs>
  <circle class="st0" cx="45" cy="45" r="45"/>
  <g>
    <path class="st1" d="M32.6,43.6c.2,0,.4,0,.6,0,.2,0,.3,0,.5.2l.4-1c-.5-.2-.9-.3-1.4-.3s-.9,0-1.2.3c-.3.2-.6.5-.8.8s-.3.8-.3,1.3c0,.8.2,1.4.6,1.8.4.4.9.6,1.6.6s.9,0,1.3-.3v-1.1c-.2,0-.4.2-.6.2-.2,0-.4,0-.6,0-.7,0-1-.4-1-1.3s.1-.8.3-1c0-.3.3-.4.6-.4Z"/>
    <path class="st1" d="M38.2,46.3c-.2,0-.5,0-.7,0-.3,0-.5-.2-.8-.3v1.1c.2,0,.4.2.7.2s.5,0,.8,0,.7,0,1-.2c.3,0,.5-.3.6-.5s.2-.5.2-.8,0-.6-.2-.8c-.2-.2-.4-.4-.8-.6-.4-.2-.7-.3-.8-.4-.2,0-.2,0-.2-.2s0-.2,0-.2c0,0,.2,0,.4,0,.3,0,.7,0,1.1.3l.4-1c-.5-.2-1-.3-1.5-.3s-1,0-1.3.4c-.3.2-.5.6-.5,1s0,.4,0,.6c0,.2.2.3.3.4.2,0,.4.3.7.4.3.2.5.3.6.3s0,0,.2,0c0,0,0,0,0,.2s0,.2,0,.3-.2,0-.4,0Z"/>
    <path class="st1" d="M44.1,46.3c-.2,0-.5,0-.7,0-.3,0-.5-.2-.8-.3v1.1c.2,0,.4.2.7.2s.5,0,.8,0,.7,0,1-.2c.3,0,.5-.3.6-.5s.2-.5.2-.8,0-.6-.2-.8c-.2-.2-.4-.4-.8-.6-.4-.2-.7-.3-.8-.4,0,0,0-.2,0-.2,0,0,0-.2,0-.2,0,0,.2,0,.4,0,.3,0,.7,0,1.1.3l.4-1c-.5-.2-1-.3-1.5-.3s-1,0-1.3.4c-.3.2-.5.6-.5,1s0,.4,0,.6c0,.2.2.3.3.4.2,0,.4.3.7.4.3.2.5.3.6.3s0,0,.2,0c0,0,0,0,0,.2s0,.2,0,.3-.3,0-.5,0Z"/>
    <path class="st1" d="M52.8,44.8c0-.7-.2-1.3-.6-1.7-.4-.4-1-.6-1.7-.6h-1.6v4.7h1.5c.8,0,1.4-.2,1.8-.6.4-.4.6-1,.6-1.8ZM51.2,45.9c-.2.2-.5.3-.8.3h-.3v-2.6h.4c.3,0,.6,0,.8.3s.3.5.3,1c-.1.4-.2.8-.4,1Z"/>
    <path class="st1" d="M58.5,46.4l.2.9h1.4l-1.5-4.7h-1.7l-1.5,4.7h1.4l.2-.9h1.5ZM57.6,43.9c0-.2,0-.4,0-.5,0,0,0,.3,0,.6,0,.3,0,.5.2.7l.2.8h-1c.2-.9.3-1.4.4-1.6Z"/>
    <polygon class="st1" points="51.2 39.2 46.4 34.4 41.7 39.2 39 39.2 49 29.2 38.5 29.2 28.4 39.2 24.6 39.2 24.6 39.9 65.8 39.9 65.8 39.2 51.2 39.2"/>
    <polygon class="st1" points="24.6 50.6 39.1 50.6 43.8 55.3 48.6 50.6 51.2 50.6 41.2 60.6 51.7 60.6 57 55.4 61.7 50.6 65.8 50.6 65.8 49.9 24.6 49.9 24.6 50.6"/>
  </g>
  <g>
    <path class="st1" d="M24.8,73.2l.4-1-1.8-1.5-.9.5-1-.9,5.3-2.9,1.1,1-2.1,5.7-1-.9ZM26.6,68.8l-2.2,1.3,1.3,1.1.9-2.4Z"/>
    <path class="st1" d="M31.5,77.2l.8-3.9-2.6,3.1-1.1-.6,1.1-5.8,1.2.6-.9,4.1,2.8-3.2.8.4-.9,4.1,2.7-3.3,1.2.6-3.9,4.4-1.1-.6Z"/>
    <path class="st1" d="M39.9,79.7v-1c-.1,0-2.5-.5-2.5-.5l-.5.9-1.3-.3,3.2-5.1,1.4.3,1,6-1.3-.3ZM39.3,75l-1.3,2.2,1.7.3-.4-2.6Z"/>
    <path class="st1" d="M46.8,80l-1.1-2h-.9s0,2,0,2h-1.2s-.1-5.6-.1-5.6h2.6c1.2,0,1.9.7,1.9,1.7,0,1-.6,1.6-1.2,1.7l1.3,2.1h-1.4ZM46.9,76.2c0-.5-.4-.8-.8-.7h-1.2s0,1.6,0,1.6h1.2c.5,0,.8-.3.8-.8Z"/>
    <path class="st1" d="M51,79.6l-1.4-5.5,2.1-.6c1.7-.4,3.1.3,3.6,2s-.4,3-2.1,3.5l-2.1.6ZM54.1,75.9c-.3-1-1-1.6-2.1-1.3l-1,.3.9,3.4,1-.3c1.1-.3,1.5-1.2,1.2-2.2Z"/>
    <path class="st1" d="M58.5,77.2l-2.6-5,3.5-1.8.5.9-2.4,1.3.6,1.1,2.4-1.2.5.9-2.4,1.2.6,1.1,2.4-1.3.5.9-3.5,1.8Z"/>
    <path class="st1" d="M64.3,73.8l-3.7-4.3,1.7-1.4c1.3-1.1,3-1,4.1.3,1.1,1.3.9,2.9-.4,4.1l-1.7,1.4ZM65.5,69.2c-.6-.8-1.6-1-2.5-.2l-.8.6,2.3,2.7.8-.6c.8-.7.8-1.7.2-2.5Z"/>
  </g>
  <g>
    <path class="st1" d="M16.9,54.3l-1-.4c.3-.5.5-1.1.4-1.9-.1-.6-.5-.9-.8-.8-1,.2.4,3.1-1.7,3.6-.9.2-1.9-.4-2.1-1.6-.2-.8,0-1.6.3-2.2l1,.4c-.3.5-.4,1.1-.3,1.7.1.5.4.7.7.6.9-.2-.4-3.1,1.7-3.6,1-.2,1.9.3,2.3,1.7.2,1,0,1.8-.4,2.4Z"/>
    <path class="st1" d="M16.5,48.1l-5.7.2v-2.5c-.1-1.2.7-1.9,1.7-1.9,1,0,1.9.6,1.9,1.8v1.4s2.1,0,2.1,0v1.2ZM12.5,45.1c-.5,0-.8.4-.7.8v1.2s1.6,0,1.6,0v-1.2c0-.5-.4-.8-.8-.8Z"/>
    <path class="st1" d="M16.5,42.2l-5.6-.8.6-3.8,1.1.2-.4,2.7,1.2.2.4-2.6,1.1.2-.4,2.6,1.3.2.4-2.7,1.1.2-.6,3.8Z"/>
    <path class="st1" d="M14.7,35.9c-1.6-.6-2.3-2.2-1.8-3.7.4-1.1,1.3-1.6,2.1-1.7v1.1c-.4,0-.9.4-1.1.9-.3.9.2,1.9,1.2,2.2s2,0,2.3-1c.2-.5,0-1.1-.3-1.5l.8-.8c.5.6.9,1.5.5,2.6-.6,1.5-2.1,2.3-3.7,1.7Z"/>
    <path class="st1" d="M19.9,30.7l-5-2.7.6-1,5,2.7-.6,1Z"/>
    <path class="st1" d="M23.8,25l-1-.3-1.4,1.8.5.9-.8,1-3.1-5.2.9-1.1,5.7,1.9-.8,1ZM19.4,23.4l1.4,2.2,1.1-1.3-2.4-.8Z"/>
    <path class="st1" d="M25.6,23.1l-3.7-4.3.9-.8,3,3.5,1.8-1.5.7.8-2.6,2.3Z"/>
    <path class="st1" d="M32.2,18.3l-2.2-5.2,2-.8c1.6-.7,3.1,0,3.8,1.5s0,3.1-1.6,3.7l-2,.8ZM34.7,14.2c-.4-.9-1.2-1.4-2.3-1l-.9.4,1.4,3.3.9-.4c1-.4,1.3-1.4.9-2.3Z"/>
    <path class="st1" d="M38.5,16l-1-5.6,3.8-.7.2,1-2.7.5.2,1.2,2.6-.4.2,1-2.6.4.2,1.3,2.7-.5.2,1-3.8.7Z"/>
    <path class="st1" d="M43.7,14.4l.7-.9c.4.4,1,.8,1.7.8.6,0,1-.3,1-.6,0-1-3.1-.4-3.1-2.6,0-.9.8-1.7,2.1-1.7.9,0,1.6.3,2.1.9l-.7.9c-.4-.4-1-.7-1.6-.7-.5,0-.8.2-.8.5,0,.9,3.1.4,3,2.5,0,1-.8,1.8-2.2,1.7-1,0-1.8-.4-2.3-1Z"/>
    <path class="st1" d="M49.8,15.7l1.1-5.6,1.1.2-1.1,5.6-1.1-.2Z"/>
    <path class="st1" d="M53.6,13.5c.7-1.7,2.3-2.3,3.8-1.7,1.1.4,1.5,1.2,1.6,2l-1.1.2c0-.5-.4-.9-.9-1.2-.9-.4-1.9.1-2.3,1.1-.4,1,0,2,.9,2.4.4.2,1,.1,1.2,0l.2-.6-1.3-.5.4-1,2.4.9-.8,2c-.8.4-1.6.5-2.6.2-1.5-.6-2.3-2.1-1.6-3.8Z"/>
    <path class="st1" d="M62,21v-4.5s-2.1,3-2.1,3l-1-.7,3.2-4.7,1,.7v4.4s2.1-2.9,2.1-2.9l1,.7-3.2,4.7-.9-.6Z"/>
    <path class="st1" d="M68.3,27.8l.8-2.7h-.7s-1.4,1-1.4,1l-.7-.9,4.5-3.4.7.9-2,1.5h3.2s.9,1.2.9,1.2l-3.4-.2-1,3.7-.9-1.1Z"/>
    <path class="st1" d="M71.9,29.2l3.1-1.4.5,1.1-3.1,1.4c-.7.3-1,1-.7,1.7.3.8,1,.9,1.7.6l3.1-1.4.5,1.1-3.1,1.4c-1.3.6-2.5.2-3.2-1.3s-.1-2.6,1.1-3.2Z"/>
    <path class="st1" d="M72.5,36.4l5.6-1.2.4,2.1c.3,1.7-.5,3.1-2.2,3.4s-3-.6-3.4-2.3l-.4-2.1ZM76,39.6c1-.2,1.6-.9,1.4-2l-.2-1-3.5.7.2,1c.2,1.1,1.1,1.5,2.1,1.3Z"/>
    <path class="st1" d="M76.5,42.7c1.7,0,2.9,1.2,2.9,2.9,0,1.6-1.3,2.8-3,2.8-1.7,0-2.9-1.2-2.9-2.9,0-1.6,1.3-2.8,3-2.8ZM76.4,47.2c1.1,0,1.9-.6,1.9-1.6,0-1-.8-1.7-1.8-1.7-1.1,0-1.9.6-1.9,1.6,0,1,.8,1.7,1.8,1.7Z"/>
    <path class="st1" d="M74.1,49.8l.8.8c-.5.3-1,.8-1.1,1.5-.1.6,0,1,.4,1.1,1,.2,1-3,3.1-2.5.9.2,1.5,1.1,1.2,2.4-.2.8-.6,1.5-1.2,1.9l-.7-.8c.5-.3.8-.9,1-1.4.1-.5,0-.8-.4-.9-.9-.2-1,3-3,2.5-1-.2-1.6-1.1-1.3-2.5.2-1,.8-1.7,1.4-2Z"/>
  </g>
</svg>